<mxfile host="app.diagrams.net" agent="Mozilla/5.0 (Windows NT 10.0; Win64; x64) AppleWebKit/537.36 (KHTML, like Gecko) Chrome/129.0.0.0 Safari/537.36" version="24.7.6">
  <diagram name="Page-1" id="5lS11jZbeybPOKgSMD23">
    <mxGraphModel dx="1290" dy="522" grid="1" gridSize="10" guides="1" tooltips="1" connect="1" arrows="1" fold="1" page="1" pageScale="1" pageWidth="850" pageHeight="1100" math="0" shadow="0">
      <root>
        <mxCell id="0" />
        <mxCell id="1" parent="0" />
        <mxCell id="UgcjCU6yKGu2uXJmaQvD-5" style="edgeStyle=orthogonalEdgeStyle;rounded=0;orthogonalLoop=1;jettySize=auto;html=1;exitX=0;exitY=1;exitDx=0;exitDy=0;entryX=0.5;entryY=0;entryDx=0;entryDy=0;" edge="1" parent="1" source="UgcjCU6yKGu2uXJmaQvD-1" target="UgcjCU6yKGu2uXJmaQvD-2">
          <mxGeometry relative="1" as="geometry" />
        </mxCell>
        <mxCell id="UgcjCU6yKGu2uXJmaQvD-6" style="edgeStyle=orthogonalEdgeStyle;rounded=0;orthogonalLoop=1;jettySize=auto;html=1;exitX=0.5;exitY=1;exitDx=0;exitDy=0;entryX=0.5;entryY=0;entryDx=0;entryDy=0;" edge="1" parent="1" source="UgcjCU6yKGu2uXJmaQvD-1" target="UgcjCU6yKGu2uXJmaQvD-3">
          <mxGeometry relative="1" as="geometry" />
        </mxCell>
        <mxCell id="UgcjCU6yKGu2uXJmaQvD-7" style="edgeStyle=orthogonalEdgeStyle;rounded=0;orthogonalLoop=1;jettySize=auto;html=1;exitX=1;exitY=1;exitDx=0;exitDy=0;entryX=0.5;entryY=0;entryDx=0;entryDy=0;" edge="1" parent="1" source="UgcjCU6yKGu2uXJmaQvD-1" target="UgcjCU6yKGu2uXJmaQvD-4">
          <mxGeometry relative="1" as="geometry" />
        </mxCell>
        <mxCell id="UgcjCU6yKGu2uXJmaQvD-1" value="main()" style="rounded=0;whiteSpace=wrap;html=1;" vertex="1" parent="1">
          <mxGeometry x="350" y="10" width="120" height="60" as="geometry" />
        </mxCell>
        <mxCell id="UgcjCU6yKGu2uXJmaQvD-2" value="get_month()" style="rounded=0;whiteSpace=wrap;html=1;" vertex="1" parent="1">
          <mxGeometry x="100" y="130" width="120" height="60" as="geometry" />
        </mxCell>
        <mxCell id="UgcjCU6yKGu2uXJmaQvD-3" value="get_year()" style="rounded=0;whiteSpace=wrap;html=1;" vertex="1" parent="1">
          <mxGeometry x="350" y="130" width="120" height="60" as="geometry" />
        </mxCell>
        <mxCell id="UgcjCU6yKGu2uXJmaQvD-9" style="edgeStyle=orthogonalEdgeStyle;rounded=0;orthogonalLoop=1;jettySize=auto;html=1;exitX=1;exitY=1;exitDx=0;exitDy=0;entryX=0.5;entryY=0;entryDx=0;entryDy=0;" edge="1" parent="1" source="UgcjCU6yKGu2uXJmaQvD-4" target="UgcjCU6yKGu2uXJmaQvD-8">
          <mxGeometry relative="1" as="geometry" />
        </mxCell>
        <mxCell id="UgcjCU6yKGu2uXJmaQvD-11" style="edgeStyle=orthogonalEdgeStyle;rounded=0;orthogonalLoop=1;jettySize=auto;html=1;exitX=0.5;exitY=1;exitDx=0;exitDy=0;entryX=0.5;entryY=0;entryDx=0;entryDy=0;" edge="1" parent="1" source="UgcjCU6yKGu2uXJmaQvD-4" target="UgcjCU6yKGu2uXJmaQvD-10">
          <mxGeometry relative="1" as="geometry" />
        </mxCell>
        <mxCell id="UgcjCU6yKGu2uXJmaQvD-13" style="edgeStyle=orthogonalEdgeStyle;rounded=0;orthogonalLoop=1;jettySize=auto;html=1;exitX=0;exitY=1;exitDx=0;exitDy=0;entryX=0.5;entryY=0;entryDx=0;entryDy=0;" edge="1" parent="1" source="UgcjCU6yKGu2uXJmaQvD-4" target="UgcjCU6yKGu2uXJmaQvD-12">
          <mxGeometry relative="1" as="geometry" />
        </mxCell>
        <mxCell id="UgcjCU6yKGu2uXJmaQvD-4" value="display_calendar()" style="rounded=0;whiteSpace=wrap;html=1;" vertex="1" parent="1">
          <mxGeometry x="620" y="130" width="120" height="60" as="geometry" />
        </mxCell>
        <mxCell id="UgcjCU6yKGu2uXJmaQvD-8" value="#_of_days()" style="rounded=0;whiteSpace=wrap;html=1;" vertex="1" parent="1">
          <mxGeometry x="720" y="220" width="120" height="60" as="geometry" />
        </mxCell>
        <mxCell id="UgcjCU6yKGu2uXJmaQvD-15" style="edgeStyle=orthogonalEdgeStyle;rounded=0;orthogonalLoop=1;jettySize=auto;html=1;exitX=0.5;exitY=1;exitDx=0;exitDy=0;entryX=0.5;entryY=0;entryDx=0;entryDy=0;" edge="1" parent="1" source="UgcjCU6yKGu2uXJmaQvD-10" target="UgcjCU6yKGu2uXJmaQvD-14">
          <mxGeometry relative="1" as="geometry" />
        </mxCell>
        <mxCell id="UgcjCU6yKGu2uXJmaQvD-10" value="compute_offset()" style="rounded=0;whiteSpace=wrap;html=1;" vertex="1" parent="1">
          <mxGeometry x="620" y="310" width="120" height="60" as="geometry" />
        </mxCell>
        <mxCell id="UgcjCU6yKGu2uXJmaQvD-12" value="display_table()" style="rounded=0;whiteSpace=wrap;html=1;" vertex="1" parent="1">
          <mxGeometry x="530" y="400" width="120" height="60" as="geometry" />
        </mxCell>
        <mxCell id="UgcjCU6yKGu2uXJmaQvD-14" value="is_leap_year()" style="rounded=0;whiteSpace=wrap;html=1;" vertex="1" parent="1">
          <mxGeometry x="710" y="440" width="120" height="50" as="geometry" />
        </mxCell>
      </root>
    </mxGraphModel>
  </diagram>
</mxfile>
